<?xml version="1.0" encoding="UTF-8"?>
<svg version="1.1" xmlns="http://www.w3.org/2000/svg" width="128" height="128">
<path d="M0 0 C11.81307663 9.67450242 19.87442304 24.26605907 22.578125 39.23046875 C24.59030294 59.92095206 20.29929562 77.62159199 6.953125 93.91796875 C-3.8989565 105.46139907 -19.5125836 113.77920315 -35.453125 114.6015625 C-55.3150047 115.04812033 -72.34888248 110.60172125 -87.26171875 96.58203125 C-101.83427247 80.71823859 -106.48045162 62.93553597 -105.6171875 41.87548828 C-104.44061041 25.94169302 -95.3805966 11.11218557 -83.5625 0.71484375 C-77.26231923 -4.21431323 -70.91400408 -7.97641295 -63.421875 -10.76953125 C-62.64328125 -11.08792969 -61.8646875 -11.40632812 -61.0625 -11.734375 C-40.06937305 -18.9883695 -17.2945075 -12.63614822 0 0 Z " fill="#5B65CD" transform="translate(105.421875,13.76953125)"/>
<path d="M0 0 C3.2555389 1.34051602 3.95071782 1.92607673 6 5 C6.1953125 7.26171875 6.1953125 7.26171875 6.125 9.6875 C6.10695313 10.49574219 6.08890625 11.30398437 6.0703125 12.13671875 C6.04710938 12.75160156 6.02390625 13.36648437 6 14 C12.4992147 11.69819479 18.79616578 7.98089419 22.23046875 1.77734375 C22.61138672 0.89755859 22.61138672 0.89755859 23 0 C26.67852334 0.25080841 28.55599012 0.61441247 31.375 3.0625 C33.50296291 6.90920219 33.42504624 9.76241782 33 14 C32.89429688 15.17820312 32.78859375 16.35640625 32.6796875 17.5703125 C31.88376225 24.84941072 31.00670214 30.80782396 27 37 C24 39 24 39 21.875 38.75 C20 38 20 38 19 36 C18.69648211 30.95624681 18.691361 25.90739626 20 21 C19.45730469 21.34933594 18.91460937 21.69867188 18.35546875 22.05859375 C17.64003906 22.51363281 16.92460938 22.96867187 16.1875 23.4375 C15.12595703 24.11619141 15.12595703 24.11619141 14.04296875 24.80859375 C10.88822042 26.64836094 8.21576123 27.17646905 4.625 27.25 C3.87476562 27.27578125 3.12453125 27.3015625 2.3515625 27.328125 C0 27 0 27 -5 24 C-7.31 29.28 -9.62 34.56 -12 40 C-13.65 40 -15.3 40 -17 40 C-19.71580834 35.36049409 -20.53020491 32.35506958 -20 27 C-18.68103166 23.34389303 -16.98971496 19.90959966 -15.25 16.4375 C-14.8065625 15.51775391 -14.363125 14.59800781 -13.90625 13.65039062 C-6.245393 -2.02056832 -6.245393 -2.02056832 0 0 Z " fill="#FAFAFD" transform="translate(83,45)"/>
<path d="M0 0 C0 0.66 0 1.32 0 2 C1.98 1.34 3.96 0.68 6 0 C6.70365602 1.5552912 7.38729378 3.11964827 8.0625 4.6875 C8.44535156 5.55761719 8.82820313 6.42773438 9.22265625 7.32421875 C10.38389559 11.32144963 9.40886076 13.91589949 7.96875 17.734375 C6.50152278 22.68035064 6.57156747 27.58937412 6.43359375 32.71875 C6.20210306 38.79789694 6.20210306 38.79789694 4 41 C0.875 41.125 0.875 41.125 -2 41 C-6.62175739 32.71935135 -5.92591169 23.64026933 -3.5 14.6875 C-3.005 13.140625 -2.51 11.59375 -2 10 C-8.435 10.495 -8.435 10.495 -15 11 C-15.33 12.65 -15.66 14.3 -16 16 C-17.45426071 19.26382374 -19.03632799 22.44817994 -20.625 25.6484375 C-22.0596619 29.14542588 -22.62049759 32.25241366 -23 36 C-22.34 36 -21.68 36 -21 36 C-21.33 37.65 -21.66 39.3 -22 41 C-25.01911587 41.92250763 -26.3995411 42.31690887 -29.25 40.8125 C-31.29582097 38.693614 -31.68555413 37.90862429 -32 35 C-32.12375 33.865625 -32.2475 32.73125 -32.375 31.5625 C-32.35136539 25.33478057 -29.40364602 19.63139924 -27 14 C-27.68707031 13.97421875 -28.37414063 13.9484375 -29.08203125 13.921875 C-29.98308594 13.86515625 -30.88414063 13.8084375 -31.8125 13.75 C-33.15248047 13.68039063 -33.15248047 13.68039063 -34.51953125 13.609375 C-37 13 -37 13 -38.80859375 11.12109375 C-40.25361974 8.54847371 -40.31436545 6.90788037 -40 4 C-37.3148933 1.3148933 -30.37817679 1.85414228 -26.75 1.4375 C-25.62335937 1.29892578 -24.49671875 1.16035156 -23.3359375 1.01757812 C-15.52392534 0.11034788 -7.86129117 -0.16831685 0 0 Z " fill="#F8F8FD" transform="translate(51,44)"/>
</svg>
